<?xml version="1.0" encoding="UTF-8"?><svg id="a" xmlns="http://www.w3.org/2000/svg" viewBox="0 0 256 256"><g id="b"><circle cx="128" cy="128" r="128" style="fill:#333;"/></g><path id="c" d="m60.8,135.5H16v-14.9h44.8v14.9Zm14.3-49.7l-31.6-31.7,10.5-10.5,31.7,31.6-10.6,10.6Zm0,84.5l10.6,10.6-31.7,31.6-10.5-10.5,31.6-31.7Zm52.8-94.5c7.2,0,14,1.4,20.4,4.1,6.3,2.7,11.9,6.5,16.6,11.2,4.7,4.7,8.5,10.3,11.2,16.6,2.7,6.3,4.1,13.1,4.1,20.4s-1.4,14-4.1,20.4-6.5,11.9-11.2,16.6c-4.7,4.7-10.3,8.5-16.6,11.2-6.3,2.7-13.1,4.1-20.4,4.1s-14-1.4-20.4-4.1c-6.3-2.7-11.9-6.5-16.6-11.2-4.7-4.7-8.5-10.3-11.2-16.6-2.7-6.3-4.1-13.1-4.1-20.4s1.4-14,4.1-20.4c2.7-6.3,6.5-11.9,11.2-16.6,4.7-4.7,10.3-8.5,16.6-11.2,6.3-2.7,13.1-4.1,20.4-4.1Zm0,89.6c5.1,0,10-1,14.5-2.9,4.5-1.9,8.5-4.6,11.8-8,3.4-3.4,6.1-7.4,8-11.9,2-4.6,3-9.4,3-14.5s-1-10-3-14.5c-2-4.5-4.7-8.5-8-11.8s-7.3-6.1-11.8-8c-4.5-2-9.3-3-14.5-3s-10,1-14.5,3c-4.5,2-8.5,4.7-11.9,8-3.4,3.4-6,7.3-8,11.8-1.9,4.5-2.9,9.3-2.9,14.5s1,10,2.9,14.5c1.9,4.5,4.6,8.5,8,11.9,3.4,3.4,7.3,6,11.9,8,4.5,1.9,9.4,2.9,14.5,2.9Zm7.5-104.5h-14.9V16h14.9v44.8Zm-14.9,134.4h14.9v44.8h-14.9v-44.8Zm60.3-109.4l-10.6-10.6,31.7-31.6,10.5,10.5-31.6,31.7Zm0,84.5l31.6,31.7-10.5,10.5-31.7-31.6,10.6-10.6Zm59.2-49.7v14.9h-44.8v-14.9h44.8Z" style="fill:#fff;"/></svg>