<?xml version="1.0" encoding="UTF-8"?><svg id="a" xmlns="http://www.w3.org/2000/svg" viewBox="0 0 256 256"><g id="b"><circle cx="128" cy="128" r="128" style="fill:#333;"/></g><path id="c" d="m65.6,134.9H24v-13.8h41.6v13.8Zm13.3-46.1l-29.3-29.4,9.8-9.7,29.4,29.3-9.8,9.8Zm0,78.4l9.8,9.8-29.4,29.3-9.8-9.7,29.3-29.4h0Zm49-87.7c6.7,0,13,1.3,18.9,3.8,5.9,2.5,11,6,15.4,10.4,4.4,4.4,7.9,9.6,10.4,15.4,2.5,5.8,3.8,12.2,3.8,18.9s-1.3,13-3.8,18.9-6,11-10.4,15.4c-4.4,4.4-9.6,7.9-15.4,10.4s-12.2,3.8-18.9,3.8-13-1.3-18.9-3.8c-5.9-2.5-11.1-6-15.4-10.4s-7.9-9.6-10.4-15.4-3.8-12.2-3.8-18.9,1.3-13,3.8-18.9c2.5-5.8,6-11,10.4-15.4s9.6-7.9,15.4-10.4c5.9-2.5,12.2-3.8,18.9-3.8Zm0,83.2c4.7,0,9.3-.9,13.5-2.7s7.9-4.3,11-7.4c3.2-3.2,5.7-6.9,7.4-11,1.9-4.3,2.8-8.7,2.8-13.5s-.9-9.3-2.8-13.5c-1.9-4.2-4.4-7.9-7.4-11s-6.8-5.7-11-7.4c-4.2-1.9-8.6-2.8-13.5-2.8s-9.3.9-13.5,2.8-7.9,4.4-11.1,7.4c-3.2,3.2-5.6,6.8-7.4,11-1.8,4.2-2.7,8.6-2.7,13.5s.9,9.3,2.7,13.5,4.3,7.9,7.4,11,6.8,5.6,11.1,7.4c4.2,1.8,8.7,2.7,13.5,2.7Zm7-97h-13.8V24h13.8v41.6h0Zm-13.8,124.8h13.8v41.6h-13.8v-41.6Zm56-101.5l-9.8-9.8,29.4-29.3,9.8,9.7-29.3,29.4h0Zm0,78.4l29.3,29.4-9.8,9.7-29.4-29.3,9.8-9.8h0Zm55-46.1v13.8h-41.6v-13.8s41.6,0,41.6,0Z" style="fill:#fff;"/></svg>